<svg width="1507" height="730" viewBox="0 0 1507 730" fill="none" xmlns="http://www.w3.org/2000/svg">
<path d="M747.16 671.65C743.953 671.65 741.657 670.957 740.27 669.57C738.883 668.097 738.19 665.367 738.19 661.38C738.19 658.693 738.45 655.443 738.97 651.63C739.49 647.817 740.4 642.053 741.7 634.34C741.873 633.3 742.567 629.097 743.78 621.73C744.993 614.277 746.077 606.477 747.03 598.33C747.897 591.397 748.33 586.197 748.33 582.73C748.33 578.83 746.9 576.88 744.04 576.88C741.873 576.88 739.143 578.05 735.85 580.39C732.643 582.643 729.177 586.283 725.45 591.31C724.237 592.957 722.893 593.78 721.42 593.78C720.207 593.78 719.123 593.217 718.17 592.09C717.303 590.877 716.87 589.533 716.87 588.06C716.87 586.587 717.13 585.2 717.65 583.9C718.17 582.513 719.123 580.867 720.51 578.96C724.757 573.153 729.48 568.69 734.68 565.57C739.88 562.363 745.34 560.76 751.06 560.76C755.827 560.76 759.38 562.233 761.72 565.18C764.147 568.127 765.36 572.417 765.36 578.05C765.36 583.077 764.667 590.357 763.28 599.89C767.613 587.063 773.117 577.357 779.79 570.77C786.463 564.097 794.307 560.76 803.32 560.76C810.427 560.76 815.757 562.797 819.31 566.87C822.95 570.857 824.77 576.23 824.77 582.99C824.77 586.803 824.207 591.44 823.08 596.9L815.15 634.08C814.283 638.413 813.85 642.14 813.85 645.26C813.85 648.9 814.673 651.63 816.32 653.45C818.053 655.27 820.437 656.18 823.47 656.18C826.33 656.18 829.103 655.227 831.79 653.32C834.563 651.413 837.813 648.25 841.54 643.83C842.58 642.617 843.75 642.01 845.05 642.01C846.177 642.01 847.043 642.53 847.65 643.57C848.343 644.61 848.69 646.04 848.69 647.86C848.69 651.24 847.867 653.927 846.22 655.92C841.713 661.38 837.25 665.367 832.83 667.88C828.41 670.393 823.773 671.65 818.92 671.65C811.553 671.65 805.79 669.483 801.63 665.15C797.47 660.73 795.39 654.837 795.39 647.47C795.39 644.61 795.607 641.49 796.04 638.11C796.56 634.73 797.383 630.44 798.51 625.24L803.71 601.45C803.883 600.67 804.187 599.283 804.62 597.29C805.053 595.297 805.4 593.433 805.66 591.7C805.92 589.88 806.05 588.103 806.05 586.37C806.05 583.597 805.27 581.387 803.71 579.74C802.15 578.093 799.94 577.27 797.08 577.27C791.88 577.27 786.68 580.043 781.48 585.59C776.28 591.137 771.47 600.107 767.05 612.5C762.63 624.807 759.163 640.58 756.65 659.82C756.043 664.24 755.133 667.317 753.92 669.05C752.793 670.783 750.54 671.65 747.16 671.65ZM854.123 671.65C848.749 671.65 844.459 669.7 841.253 665.8C838.046 661.9 836.443 656.787 836.443 650.46C836.443 643.527 838.046 636.983 841.253 630.83C844.459 624.59 848.706 619.607 853.993 615.88C859.366 612.067 865.043 610.16 871.023 610.16C872.929 610.16 874.186 610.55 874.793 611.33C875.486 612.023 876.049 613.323 876.483 615.23C878.303 614.883 880.209 614.71 882.203 614.71C886.449 614.71 888.573 616.227 888.573 619.26C888.573 621.08 887.923 625.413 886.623 632.26C884.629 642.227 883.633 649.16 883.633 653.06C883.633 654.36 883.936 655.4 884.543 656.18C885.236 656.96 886.103 657.35 887.143 657.35C888.789 657.35 890.783 656.31 893.123 654.23C895.463 652.063 898.626 648.597 902.613 643.83C903.653 642.617 904.823 642.01 906.123 642.01C907.249 642.01 908.116 642.53 908.723 643.57C909.416 644.61 909.763 646.04 909.763 647.86C909.763 651.327 908.939 654.013 907.293 655.92C903.739 660.34 899.969 664.067 895.983 667.1C891.996 670.133 888.139 671.65 884.413 671.65C881.553 671.65 878.909 670.697 876.483 668.79C874.143 666.797 872.366 664.11 871.153 660.73C866.646 668.01 860.969 671.65 854.123 671.65ZM858.803 658.52C860.709 658.52 862.529 657.393 864.263 655.14C865.996 652.887 867.253 649.897 868.033 646.17L872.843 622.25C869.203 622.337 865.823 623.723 862.703 626.41C859.669 629.01 857.243 632.477 855.423 636.81C853.603 641.143 852.693 645.737 852.693 650.59C852.693 653.277 853.213 655.27 854.253 656.57C855.379 657.87 856.896 658.52 858.803 658.52ZM957.177 642.01C958.304 642.01 959.17 642.53 959.777 643.57C960.47 644.61 960.817 646.04 960.817 647.86C960.817 651.327 959.994 654.013 958.347 655.92C954.62 660.513 950.547 664.283 946.127 667.23C941.707 670.177 936.637 671.65 930.917 671.65C913.237 671.65 904.397 659.213 904.397 634.34C904.397 630.527 904.527 626.67 904.787 622.77H899.717C897.117 622.77 895.34 622.293 894.387 621.34C893.52 620.387 893.087 618.87 893.087 616.79C893.087 611.937 895.037 609.51 898.937 609.51H906.347C907.82 599.977 910.074 591.267 913.107 583.38C916.14 575.493 919.78 569.21 924.027 564.53C928.36 559.85 932.997 557.51 937.937 557.51C941.577 557.51 944.437 559.113 946.517 562.32C948.597 565.527 949.637 569.557 949.637 574.41C949.637 587.843 944.004 599.543 932.737 609.51H947.297C948.684 609.51 949.68 609.813 950.287 610.42C950.894 611.027 951.197 612.153 951.197 613.8C951.197 619.78 946.3 622.77 936.507 622.77H920.647C920.474 627.103 920.387 630.483 920.387 632.91C920.387 641.923 921.427 648.25 923.507 651.89C925.674 655.53 929.054 657.35 933.647 657.35C937.374 657.35 940.667 656.223 943.527 653.97C946.387 651.717 949.767 648.337 953.667 643.83C954.707 642.617 955.877 642.01 957.177 642.01ZM934.427 569.99C933.127 569.99 931.654 571.637 930.007 574.93C928.447 578.137 926.93 582.643 925.457 588.45C924.07 594.17 922.9 600.54 921.947 607.56C927.06 603.14 930.874 598.2 933.387 592.74C935.987 587.193 937.287 582.167 937.287 577.66C937.287 572.547 936.334 569.99 934.427 569.99ZM1022.38 642.01C1023.51 642.01 1024.38 642.53 1024.98 643.57C1025.68 644.61 1026.02 646.04 1026.02 647.86C1026.02 651.327 1025.2 654.013 1023.55 655.92C1019.57 660.513 1015.45 664.283 1011.2 667.23C1007.04 670.177 1002.28 671.65 996.902 671.65C992.482 671.65 989.146 670.393 986.892 667.88C984.639 665.28 983.512 661.553 983.512 656.7C983.512 654.273 984.119 649.94 985.332 643.7C986.459 638.24 987.022 634.47 987.022 632.39C987.022 631.003 986.546 630.31 985.592 630.31C984.466 630.31 982.862 631.783 980.782 634.73C978.702 637.59 976.622 641.403 974.542 646.17C972.462 650.937 970.772 655.963 969.472 661.25C967.826 668.183 963.752 671.65 957.252 671.65C954.652 671.65 952.919 670.74 952.052 668.92C951.272 667.013 950.882 663.633 950.882 658.78C950.882 656.007 950.926 653.797 951.012 652.15L951.142 641.75C951.142 628.403 952.486 614.493 955.172 600.02C957.946 585.547 961.976 573.413 967.262 563.62C972.636 553.74 979.049 548.8 986.502 548.8C990.489 548.8 993.696 550.533 996.122 554C998.636 557.38 999.892 561.8 999.892 567.26C999.892 576.013 997.336 585.113 992.222 594.56C987.109 603.92 978.789 614.883 967.262 627.45C967.002 631.957 966.872 636.593 966.872 641.36C969.732 633.993 972.896 628.013 976.362 623.42C979.916 618.74 983.382 615.403 986.762 613.41C990.229 611.417 993.392 610.42 996.252 610.42C1001.89 610.42 1004.7 613.237 1004.7 618.87C1004.7 622.25 1003.75 628.36 1001.84 637.2C1000.2 644.74 999.372 649.723 999.372 652.15C999.372 655.617 1000.63 657.35 1003.14 657.35C1004.88 657.35 1006.91 656.31 1009.25 654.23C1011.68 652.063 1014.89 648.597 1018.87 643.83C1019.91 642.617 1021.08 642.01 1022.38 642.01ZM983.772 561.67C982.212 561.67 980.479 563.923 978.572 568.43C976.666 572.85 974.802 578.873 972.982 586.5C971.249 594.04 969.819 602.273 968.692 611.2C974.066 604.873 978.486 597.983 981.952 590.53C985.506 583.077 987.282 576.317 987.282 570.25C987.282 567.477 986.979 565.353 986.372 563.88C985.766 562.407 984.899 561.67 983.772 561.67ZM1031.48 671.65C1026.1 671.65 1021.81 669.7 1018.61 665.8C1015.4 661.9 1013.8 656.787 1013.8 650.46C1013.8 643.527 1015.4 636.983 1018.61 630.83C1021.81 624.59 1026.06 619.607 1031.35 615.88C1036.72 612.067 1042.4 610.16 1048.38 610.16C1050.28 610.16 1051.54 610.55 1052.15 611.33C1052.84 612.023 1053.4 613.323 1053.84 615.23C1055.66 614.883 1057.56 614.71 1059.56 614.71C1063.8 614.71 1065.93 616.227 1065.93 619.26C1065.93 621.08 1065.28 625.413 1063.98 632.26C1061.98 642.227 1060.99 649.16 1060.99 653.06C1060.99 654.36 1061.29 655.4 1061.9 656.18C1062.59 656.96 1063.46 657.35 1064.5 657.35C1066.14 657.35 1068.14 656.31 1070.48 654.23C1072.82 652.063 1075.98 648.597 1079.97 643.83C1081.01 642.617 1082.18 642.01 1083.48 642.01C1084.6 642.01 1085.47 642.53 1086.08 643.57C1086.77 644.61 1087.12 646.04 1087.12 647.86C1087.12 651.327 1086.29 654.013 1084.65 655.92C1081.09 660.34 1077.32 664.067 1073.34 667.1C1069.35 670.133 1065.49 671.65 1061.77 671.65C1058.91 671.65 1056.26 670.697 1053.84 668.79C1051.5 666.797 1049.72 664.11 1048.51 660.73C1044 668.01 1038.32 671.65 1031.48 671.65ZM1036.16 658.52C1038.06 658.52 1039.88 657.393 1041.62 655.14C1043.35 652.887 1044.61 649.897 1045.39 646.17L1050.2 622.25C1046.56 622.337 1043.18 623.723 1040.06 626.41C1037.02 629.01 1034.6 632.477 1032.78 636.81C1030.96 641.143 1030.05 645.737 1030.05 650.59C1030.05 653.277 1030.57 655.27 1031.61 656.57C1032.73 657.87 1034.25 658.52 1036.16 658.52ZM1085.78 671.65C1082.49 671.65 1080.15 669.917 1078.76 666.45C1077.46 662.983 1076.81 657.437 1076.81 649.81C1076.81 638.543 1078.41 627.84 1081.62 617.7C1082.4 615.187 1083.66 613.367 1085.39 612.24C1087.21 611.027 1089.72 610.42 1092.93 610.42C1094.66 610.42 1095.88 610.637 1096.57 611.07C1097.26 611.503 1097.61 612.327 1097.61 613.54C1097.61 614.927 1096.96 618.047 1095.66 622.9C1094.79 626.367 1094.1 629.4 1093.58 632C1093.06 634.6 1092.63 637.807 1092.28 641.62C1095.14 634.167 1098.35 628.1 1101.9 623.42C1105.45 618.74 1108.92 615.403 1112.3 613.41C1115.77 611.417 1118.93 610.42 1121.79 610.42C1124.56 610.42 1126.64 611.157 1128.03 612.63C1129.5 614.017 1130.24 616.097 1130.24 618.87C1130.24 621.123 1129.76 625.37 1128.81 631.61C1127.94 636.897 1127.25 641.923 1126.73 646.69C1126.21 651.37 1125.95 656.613 1125.95 662.42C1125.95 665.713 1125.26 668.097 1123.87 669.57C1122.57 670.957 1120.4 671.65 1117.37 671.65C1114.51 671.65 1112.43 670.913 1111.13 669.44C1109.83 667.967 1109.18 665.757 1109.18 662.81C1109.18 659.343 1109.79 653.623 1111 645.65C1112.04 638.717 1112.56 634.297 1112.56 632.39C1112.56 631.003 1112.08 630.31 1111.13 630.31C1110 630.31 1108.4 631.783 1106.32 634.73C1104.33 637.59 1102.25 641.403 1100.08 646.17C1098 650.937 1096.31 655.963 1095.01 661.25C1094.06 665.323 1092.93 668.097 1091.63 669.57C1090.42 670.957 1088.47 671.65 1085.78 671.65ZM1277.92 587.8C1277.92 595.167 1275.32 601.537 1270.12 606.91C1264.92 612.197 1257.34 616.01 1247.37 618.35C1252.75 619.823 1256.82 622.25 1259.59 625.63C1262.37 628.923 1263.75 632.737 1263.75 637.07C1263.75 643.917 1261.59 649.853 1257.25 654.88C1253.01 659.907 1246.77 663.807 1238.53 666.58C1230.3 669.267 1220.38 670.61 1208.76 670.61C1204.43 670.61 1200.96 670.48 1198.36 670.22C1198.28 672.647 1197.24 674.467 1195.24 675.68C1193.25 676.893 1190.69 677.5 1187.57 677.5C1184.45 677.5 1182.29 676.807 1181.07 675.42C1179.95 674.033 1179.47 671.997 1179.64 669.31C1180.42 657.177 1181.94 644.48 1184.19 631.22C1186.45 617.873 1189.31 605.003 1192.77 592.61C1193.38 590.443 1194.59 588.927 1196.41 588.06C1198.23 587.193 1200.62 586.76 1203.56 586.76C1208.85 586.76 1211.49 588.233 1211.49 591.18C1211.49 592.393 1211.23 593.78 1210.71 595.34C1208.46 602.1 1206.21 611.287 1203.95 622.9C1201.7 634.427 1200.1 645.433 1199.14 655.92C1203.3 656.267 1206.68 656.44 1209.28 656.44C1221.42 656.44 1230.3 654.707 1235.93 651.24C1241.65 647.687 1244.51 643.18 1244.51 637.72C1244.51 633.907 1242.87 630.7 1239.57 628.1C1236.37 625.5 1230.95 624.07 1223.32 623.81C1221.59 623.723 1220.38 623.29 1219.68 622.51C1218.99 621.73 1218.64 620.473 1218.64 618.74C1218.64 616.227 1219.16 614.19 1220.2 612.63C1221.24 611.07 1223.15 610.247 1225.92 610.16C1232.08 609.987 1237.62 609.077 1242.56 607.43C1247.59 605.783 1251.53 603.487 1254.39 600.54C1257.25 597.507 1258.68 593.997 1258.68 590.01C1258.68 584.983 1256.21 581.04 1251.27 578.18C1246.33 575.233 1238.75 573.76 1228.52 573.76C1219.25 573.76 1210.28 574.973 1201.61 577.4C1192.95 579.74 1185.58 582.73 1179.51 586.37C1176.74 588.017 1174.4 588.84 1172.49 588.84C1170.93 588.84 1169.72 588.32 1168.85 587.28C1168.07 586.153 1167.68 584.767 1167.68 583.12C1167.68 580.953 1168.12 579.09 1168.98 577.53C1169.94 575.97 1172.15 574.193 1175.61 572.2C1182.89 568.04 1191.43 564.79 1201.22 562.45C1211.02 560.11 1221.03 558.94 1231.25 558.94C1246.94 558.94 1258.64 561.583 1266.35 566.87C1274.07 572.157 1277.92 579.133 1277.92 587.8ZM1340.58 631.09C1341.71 631.09 1342.58 631.653 1343.18 632.78C1343.79 633.907 1344.09 635.337 1344.09 637.07C1344.09 641.23 1342.84 643.7 1340.32 644.48C1335.12 646.3 1329.4 647.34 1323.16 647.6C1321.52 654.88 1318.27 660.73 1313.41 665.15C1308.56 669.483 1303.06 671.65 1296.9 671.65C1291.7 671.65 1287.24 670.393 1283.51 667.88C1279.87 665.367 1277.1 662.03 1275.19 657.87C1273.29 653.71 1272.33 649.203 1272.33 644.35C1272.33 637.763 1273.59 631.913 1276.1 626.8C1278.62 621.6 1282.08 617.57 1286.5 614.71C1290.92 611.763 1295.82 610.29 1301.19 610.29C1307.78 610.29 1313.07 612.587 1317.05 617.18C1321.13 621.687 1323.51 627.277 1324.2 633.95C1328.28 633.69 1333.13 632.823 1338.76 631.35C1339.46 631.177 1340.06 631.09 1340.58 631.09ZM1297.94 657.87C1300.72 657.87 1303.1 656.743 1305.09 654.49C1307.17 652.237 1308.56 648.987 1309.25 644.74C1306.57 642.92 1304.49 640.537 1303.01 637.59C1301.63 634.643 1300.93 631.523 1300.93 628.23C1300.93 626.843 1301.06 625.457 1301.32 624.07H1300.67C1297.21 624.07 1294.3 625.76 1291.96 629.14C1289.71 632.433 1288.58 637.113 1288.58 643.18C1288.58 647.947 1289.49 651.587 1291.31 654.1C1293.22 656.613 1295.43 657.87 1297.94 657.87ZM1399.23 631.09C1400.36 631.09 1401.23 631.653 1401.83 632.78C1402.44 633.907 1402.74 635.337 1402.74 637.07C1402.74 641.23 1401.49 643.7 1398.97 644.48C1393.77 646.3 1388.05 647.34 1381.81 647.6C1380.17 654.88 1376.92 660.73 1372.06 665.15C1367.21 669.483 1361.71 671.65 1355.55 671.65C1350.35 671.65 1345.89 670.393 1342.16 667.88C1338.52 665.367 1335.75 662.03 1333.84 657.87C1331.94 653.71 1330.98 649.203 1330.98 644.35C1330.98 637.763 1332.24 631.913 1334.75 626.8C1337.27 621.6 1340.73 617.57 1345.15 614.71C1349.57 611.763 1354.47 610.29 1359.84 610.29C1366.43 610.29 1371.72 612.587 1375.7 617.18C1379.78 621.687 1382.16 627.277 1382.85 633.95C1386.93 633.69 1391.78 632.823 1397.41 631.35C1398.11 631.177 1398.71 631.09 1399.23 631.09ZM1356.59 657.87C1359.37 657.87 1361.75 656.743 1363.74 654.49C1365.82 652.237 1367.21 648.987 1367.9 644.74C1365.22 642.92 1363.14 640.537 1361.66 637.59C1360.28 634.643 1359.58 631.523 1359.58 628.23C1359.58 626.843 1359.71 625.457 1359.97 624.07H1359.32C1355.86 624.07 1352.95 625.76 1350.61 629.14C1348.36 632.433 1347.23 637.113 1347.23 643.18C1347.23 647.947 1348.14 651.587 1349.96 654.1C1351.87 656.613 1354.08 657.87 1356.59 657.87ZM1400.82 671.65C1397.52 671.65 1395.18 669.917 1393.8 666.45C1392.5 662.983 1391.85 657.437 1391.85 649.81C1391.85 638.543 1393.45 627.84 1396.66 617.7C1397.44 615.187 1398.69 613.367 1400.43 612.24C1402.25 611.027 1404.76 610.42 1407.97 610.42C1409.7 610.42 1410.91 610.637 1411.61 611.07C1412.3 611.503 1412.65 612.327 1412.65 613.54C1412.65 614.927 1412 618.047 1410.7 622.9C1409.83 626.367 1409.14 629.4 1408.62 632C1408.1 634.6 1407.66 637.807 1407.32 641.62C1410.18 634.167 1413.38 628.1 1416.94 623.42C1420.49 618.74 1423.96 615.403 1427.34 613.41C1430.8 611.417 1433.97 610.42 1436.83 610.42C1442.46 610.42 1445.28 613.237 1445.28 618.87C1445.28 622.25 1444.32 628.36 1442.42 637.2C1440.77 644.74 1439.95 649.723 1439.95 652.15C1439.95 655.617 1441.2 657.35 1443.72 657.35C1445.45 657.35 1447.49 656.31 1449.83 654.23C1452.25 652.063 1455.46 648.597 1459.45 643.83C1460.49 642.617 1461.66 642.01 1462.96 642.01C1464.08 642.01 1464.95 642.53 1465.56 643.57C1466.25 644.61 1466.6 646.04 1466.6 647.86C1466.6 651.327 1465.77 654.013 1464.13 655.92C1460.4 660.513 1456.37 664.283 1452.04 667.23C1447.79 670.177 1442.94 671.65 1437.48 671.65C1433.06 671.65 1429.72 670.393 1427.47 667.88C1425.21 665.28 1424.09 661.553 1424.09 656.7C1424.09 654.273 1424.69 649.94 1425.91 643.7C1427.03 638.24 1427.6 634.47 1427.6 632.39C1427.6 631.003 1427.12 630.31 1426.17 630.31C1425.04 630.31 1423.44 631.783 1421.36 634.73C1419.36 637.59 1417.28 641.403 1415.12 646.17C1413.04 650.937 1411.35 655.963 1410.05 661.25C1409.09 665.323 1407.97 668.097 1406.67 669.57C1405.45 670.957 1403.5 671.65 1400.82 671.65ZM1502.62 645.91C1503.75 645.91 1504.61 646.43 1505.22 647.47C1505.91 648.51 1506.26 649.94 1506.26 651.76C1506.26 654.88 1505.52 657.567 1504.05 659.82C1501.62 663.547 1498.42 666.45 1494.43 668.53C1490.53 670.61 1485.85 671.65 1480.39 671.65C1472.07 671.65 1465.61 669.18 1461.02 664.24C1456.43 659.213 1454.13 652.453 1454.13 643.96C1454.13 637.98 1455.39 632.433 1457.9 627.32C1460.41 622.12 1463.88 618.003 1468.3 614.97C1472.81 611.937 1477.88 610.42 1483.51 610.42C1488.54 610.42 1492.57 611.937 1495.6 614.97C1498.63 617.917 1500.15 621.947 1500.15 627.06C1500.15 633.04 1497.98 638.197 1493.65 642.53C1489.4 646.777 1482.12 650.157 1471.81 652.67C1473.89 656.657 1477.4 658.65 1482.34 658.65C1485.89 658.65 1488.8 657.827 1491.05 656.18C1493.39 654.533 1496.08 651.76 1499.11 647.86C1500.15 646.56 1501.32 645.91 1502.62 645.91ZM1481.3 623.16C1478.09 623.16 1475.36 625.023 1473.11 628.75C1470.94 632.477 1469.86 636.983 1469.86 642.27V642.53C1474.97 641.317 1479 639.497 1481.95 637.07C1484.9 634.643 1486.37 631.827 1486.37 628.62C1486.37 626.973 1485.89 625.673 1484.94 624.72C1484.07 623.68 1482.86 623.16 1481.3 623.16Z" fill="#296DB0"/>
<path d="M776.487 2.23545C774.156 0.116472 770.778 -0.309095 767.958 1.1006L205.559 287.074C203.139 288.307 201.552 290.745 201.419 293.458C201.277 296.171 202.598 298.751 204.885 300.232L347.354 392.164L364.97 521.732C365.298 524.161 366.788 526.289 368.951 527.424C370.068 528.018 371.274 528.302 372.498 528.302C373.659 528.302 374.829 528.027 375.911 527.486L490.265 470.025L577.338 512.449C579.271 513.398 581.479 513.486 583.456 512.688C585.433 511.908 587.002 510.33 587.756 508.344C587.756 508.344 779.457 14.5415 778.012 11.8551L778.5 10.5961C779.617 7.67034 778.828 4.34557 776.487 2.23545ZM224.222 294.637L741.413 31.653L349.863 375.699L224.222 294.637ZM652.451 130.057L697.801 90.2131L653.081 142.771C652.452 138.967 652.292 135.102 652.593 131.165C652.62 130.74 652.496 130.421 652.451 130.057ZM644.667 152.657L613.804 188.928C612.989 182.172 612.173 175.416 611.357 168.66C611.269 167.915 611.021 167.294 610.719 166.718L641.927 139.304C642.273 143.853 643.213 148.294 644.667 152.657ZM604.406 199.966L579.741 228.967C578.535 218.709 577.338 208.451 576.133 198.184C576.097 197.864 575.938 197.634 575.858 197.35L601.392 174.91C602.394 183.262 603.405 191.614 604.406 199.966ZM570.316 240.031L542.805 272.383C541.245 259.732 539.693 247.089 538.133 234.437C537.991 233.267 537.486 232.38 536.865 231.609L566.3 205.746C567.639 217.175 568.978 228.612 570.316 240.031ZM533.434 283.395L506.242 315.348C504.522 298.184 502.811 281.028 501.091 263.863C501.064 263.615 500.949 263.438 500.895 263.216L528.017 239.393C529.825 254.057 531.625 268.731 533.434 283.395ZM496.649 326.617L476.939 349.793C473.978 330.545 471.026 311.305 468.065 292.066L491.161 271.763C492.996 290.054 494.813 308.335 496.649 326.617ZM467.816 360.512L443.461 389.131C441.236 365.947 439.002 342.753 436.776 319.56L458.578 300.4C461.654 320.437 464.74 340.475 467.816 360.512ZM433.833 400.462L420.312 416.35C420.144 416.545 420.028 416.793 419.878 417.006C419.816 417.095 419.718 417.139 419.665 417.228C419.621 417.308 419.621 417.387 419.576 417.467C419.488 417.609 419.363 417.742 419.292 417.893L409.221 438.205C406.818 408.716 404.69 379.21 402.997 349.669C402.988 349.536 402.917 349.447 402.908 349.323L426.891 328.248C429.205 352.32 431.519 376.391 433.833 400.462ZM361.938 386.649C361.894 386.285 361.663 385.984 361.575 385.638L392.827 358.171C394.796 391.1 397.145 423.993 399.982 456.859L377.622 501.969L361.938 386.649ZM395.133 500.826L429.178 432.167L474.758 460.813L395.133 500.826ZM576.54 495.169L493.891 454.9L437.583 419.506L743.186 60.3257L576.54 495.169Z" fill="#3D90E3"/>
<path d="M8.66145 448.347C9.03382 448.4 9.4062 448.435 9.77857 448.435C13.4846 448.435 16.7295 445.713 17.2881 441.936C17.9974 437.104 18.884 432.326 19.9479 427.582C20.8611 423.486 18.2811 419.426 14.185 418.512C10.08 417.581 6.02824 420.179 5.11503 424.275C3.97132 429.373 3.01378 434.524 2.2513 439.72C1.63955 443.878 4.51214 447.744 8.66145 448.347Z" fill="#3D90E3"/>
<path d="M10.5594 505.738C14.7176 505.153 17.6079 501.305 17.0317 497.165C15.817 488.467 15.1964 479.512 15.1964 470.567L15.2052 468.111C15.2584 463.908 11.8982 460.468 7.70458 460.415H7.61592C3.45775 460.415 0.0709283 463.758 0.0177321 467.925L0 470.567C0 480.204 0.664953 489.859 1.98599 499.257C2.50909 503.061 5.77179 505.809 9.49552 505.809C9.85016 505.809 10.2048 505.783 10.5594 505.738Z" fill="#3D90E3"/>
<path d="M344.579 589.338C340.642 587.857 336.262 589.808 334.773 593.726C331.191 603.089 326.944 611.804 322.13 619.624C319.931 623.188 321.048 627.869 324.621 630.077C325.863 630.84 327.237 631.212 328.593 631.212C331.147 631.212 333.638 629.926 335.066 627.595C340.376 618.968 345.049 609.402 348.967 599.161C350.466 595.225 348.506 590.836 344.579 589.338Z" fill="#3D90E3"/>
<path d="M32.929 549.668C28.7442 541.175 25.2333 532.113 22.4848 522.715C21.3234 518.681 17.1031 516.421 13.0691 517.538C9.0439 518.717 6.721 522.928 7.90905 526.962C10.888 537.203 14.727 547.097 19.3108 556.389C20.6318 559.066 23.3271 560.627 26.1287 560.627C27.2636 560.627 28.4073 560.369 29.4801 559.838C33.2393 557.976 34.782 553.427 32.929 549.668Z" fill="#3D90E3"/>
<path d="M174.049 621.271C173.517 620.047 173.003 618.815 172.533 617.556C175.326 615.313 176.221 611.341 174.474 608.061C173.26 605.791 171.079 604.399 168.72 604.097C168.1 600.932 167.648 597.723 167.373 594.442C167.027 590.257 163.268 587.021 159.172 587.5C154.987 587.846 151.884 591.516 152.23 595.692C152.62 600.374 153.311 604.975 154.304 609.452C149.002 611.501 143.541 613.017 137.991 613.965C133.85 614.666 131.075 618.593 131.776 622.725C132.494 626.874 136.448 629.649 140.553 628.94C146.75 627.876 152.815 626.236 158.737 624.028C159.181 625.145 159.633 626.254 160.12 627.353C161.37 630.199 164.154 631.91 167.089 631.91C168.109 631.91 169.137 631.706 170.121 631.272C173.969 629.596 175.725 625.119 174.049 621.271Z" fill="#3D90E3"/>
<path d="M113.095 614.507C103.972 613.355 95.0264 610.704 86.5061 606.652C82.7292 604.852 78.1809 606.457 76.3811 610.243C74.5813 614.029 76.186 618.568 79.9807 620.368C89.9639 625.12 100.47 628.223 111.198 629.58C111.526 629.624 111.845 629.642 112.164 629.642C115.932 629.642 119.204 626.831 119.692 622.992C120.206 618.843 117.253 615.03 113.095 614.507Z" fill="#3D90E3"/>
<path d="M306.561 639.855C299.797 646.823 292.358 652.471 284.467 656.629C280.761 658.588 279.343 663.181 281.302 666.905C282.658 669.476 285.292 670.957 288.022 670.957C289.219 670.957 290.434 670.673 291.569 670.079C300.869 665.167 309.585 658.562 317.467 650.458C320.392 647.435 320.321 642.638 317.316 639.713C314.301 636.805 309.487 636.849 306.561 639.855Z" fill="#3D90E3"/>
<path d="M53.8345 581.365C51.1747 578.289 48.6656 575.124 46.2984 571.87C43.8337 568.474 39.0815 567.72 35.6858 570.194C32.2901 572.668 31.5453 577.42 34.019 580.816C36.6344 584.406 39.4006 587.9 42.3353 591.295C46.458 596.074 50.8999 600.498 55.5545 604.461C56.982 605.685 58.7286 606.279 60.4752 606.279C62.6296 606.279 64.7575 605.366 66.2647 603.61C68.9866 600.418 68.5965 595.622 65.4047 592.9C61.3441 589.425 57.4519 585.541 53.8345 581.365Z" fill="#3D90E3"/>
<path d="M212.785 565.813C209.221 563.614 204.53 564.722 202.332 568.304C200.949 570.529 199.681 572.453 198.608 573.961C194.361 579.954 189.636 585.407 184.555 590.203C181.496 593.085 181.364 597.89 184.245 600.949C185.734 602.536 187.747 603.343 189.769 603.343C191.639 603.343 193.519 602.651 194.982 601.268C200.78 595.789 206.18 589.556 211.012 582.765C212.244 581.027 213.698 578.837 215.276 576.266C217.475 572.693 216.358 568.012 212.785 565.813Z" fill="#3D90E3"/>
<path d="M228.256 550.893C232.716 539.863 234.977 530.129 234.977 521.954C234.977 520.562 234.915 519.197 234.782 517.858C234.356 513.682 230.641 510.747 226.456 511.058C222.289 511.483 219.239 515.207 219.665 519.383C219.754 520.216 219.789 521.076 219.789 521.954C219.789 528.08 217.847 536.122 214.177 545.201C212.599 549.084 214.478 553.508 218.371 555.095C219.301 555.468 220.259 555.654 221.217 555.654C224.213 555.645 227.059 553.845 228.256 550.893Z" fill="#3D90E3"/>
<path d="M209.38 657.887C201.02 653.968 193.634 648.578 187.446 641.875C184.591 638.798 179.777 638.612 176.709 641.449C173.624 644.295 173.438 649.109 176.284 652.195C183.811 660.343 192.783 666.895 202.935 671.638C203.972 672.135 205.072 672.365 206.153 672.365C209.008 672.365 211.748 670.743 213.042 667.994C214.815 664.191 213.184 659.669 209.38 657.887Z" fill="#3D90E3"/>
<path d="M159.837 575.425C160.298 575.513 160.768 575.549 161.229 575.549C164.82 575.549 168.012 572.978 168.685 569.334C169.483 565.007 170.592 560.681 171.957 556.478C173.207 552.612 175.299 547.559 177.693 542.612C179.529 538.835 177.95 534.286 174.165 532.46C170.37 530.589 165.848 532.212 164.022 535.989C161.344 541.53 158.968 547.284 157.505 551.77C155.936 556.593 154.668 561.576 153.746 566.559C152.984 570.69 155.706 574.662 159.837 575.425Z" fill="#3D90E3"/>
<path d="M180.326 522.034C181.727 523.151 183.403 523.692 185.07 523.692C187.295 523.692 189.512 522.708 191.001 520.837C197.464 512.76 203.83 508.318 208.928 508.318L209.886 500.747L209.389 508.336C213.459 508.576 217.191 505.428 217.466 501.243C217.741 497.067 214.567 493.441 210.382 493.166C210.214 493.158 209.097 493.122 208.928 493.122C198.839 493.122 188.82 499.257 179.138 511.351C176.514 514.631 177.046 519.41 180.326 522.034Z" fill="#3D90E3"/>
<path d="M261.069 664.588C252.318 666.068 242.84 666.148 233.274 664.783C229.125 664.26 225.268 667.088 224.691 671.246C224.106 675.404 226.997 679.252 231.146 679.846C236.412 680.591 241.688 680.963 246.83 680.963C252.549 680.963 258.196 680.493 263.613 679.562C267.754 678.862 270.538 674.934 269.828 670.803C269.128 666.662 265.183 663.887 261.069 664.588Z" fill="#3D90E3"/>
<path d="M353.754 547.311C349.649 546.743 345.739 549.563 345.119 553.721C344.41 558.509 343.514 563.323 342.441 568.102C341.519 572.198 344.099 576.258 348.186 577.18C348.745 577.305 349.304 577.367 349.853 577.367C353.329 577.367 356.467 574.964 357.265 571.435C358.418 566.293 359.384 561.106 360.147 555.937C360.767 551.788 357.913 547.931 353.754 547.311Z" fill="#3D90E3"/>
<path d="M576.125 444.058C581.87 430.28 587.624 416.493 593.369 402.706C596.029 396.341 585.656 393.574 583.031 399.86C577.286 413.638 571.532 427.425 565.787 441.212C563.136 447.569 573.509 450.344 576.125 444.058Z" fill="#3D90E3"/>
<path d="M604.875 375.14C616.375 347.576 627.874 320.011 639.373 292.447C642.033 286.081 631.66 283.315 629.035 289.601C617.536 317.165 606.037 344.73 594.538 372.294C591.887 378.651 602.251 381.426 604.875 375.14Z" fill="#3D90E3"/>
</svg>
