<svg width="926" height="220" viewBox="0 0 926 220" fill="none" xmlns="http://www.w3.org/2000/svg">
<path d="M25.205 116.11C27.555 117.677 28.73 119.008 28.73 120.105C28.8867 121.045 28.4167 121.75 27.32 122.22C26.2233 122.533 24.735 122.533 22.855 122.22C21.1317 121.907 19.565 121.202 18.155 120.105C13.6117 116.815 10.9483 113.055 10.165 108.825C9.53833 104.595 9.93 100.365 11.34 96.135C12.9067 91.7483 15.0217 87.5967 17.685 83.68C20.505 79.6067 23.0117 76.0817 25.205 73.105C32.725 63.5483 40.7933 54.54 49.41 46.08C58.1833 37.62 67.27 29.5517 76.67 21.875C78.7067 20.3083 80.9 18.5067 83.25 16.47C85.7567 14.4333 88.42 12.475 91.24 10.595C94.06 8.55833 96.9583 6.75666 99.935 5.18999C103.068 3.46666 106.202 2.21333 109.335 1.42999C110.745 1.11666 112.86 1.35166 115.68 2.13499C118.5 2.76166 121.242 3.85833 123.905 5.42499C126.568 6.83499 128.84 8.63666 130.72 10.83C132.6 13.0233 133.462 15.3733 133.305 17.88C133.305 19.6033 132.992 21.3267 132.365 23.05C131.738 24.7733 131.033 26.4967 130.25 28.22C124.61 40.7533 118.187 53.365 110.98 66.055C103.93 78.745 96.3317 91.3567 88.185 103.89C80.0383 116.267 71.5783 128.487 62.805 140.55C54.1883 152.613 45.415 164.285 36.485 175.565C51.2117 170.238 66.4083 166.243 82.075 163.58C97.7417 161.073 113.8 160.212 130.25 160.995C132.13 161.152 133.697 161.857 134.95 163.11C136.36 164.363 138.162 166.322 140.355 168.985C140.825 169.768 142.078 170.552 144.115 171.335C146.152 172.275 147.64 172.98 148.58 173.45C148.893 173.607 149.207 173.842 149.52 174.155C149.833 174.468 149.912 174.703 149.755 174.86C149.755 175.173 149.442 175.408 148.815 175.565C148.345 175.722 147.483 175.722 146.23 175.565C137.143 174.625 127.43 174.312 117.09 174.625C106.75 174.938 96.2533 175.878 85.6 177.445C75.1033 179.168 64.685 181.44 54.345 184.26C44.1617 187.237 34.6833 190.762 25.91 194.835C24.1867 195.775 22.2283 195.54 20.035 194.13C17.9983 192.72 16.04 192.328 14.16 192.955C12.4367 193.582 10.3217 194.443 7.815 195.54C4.68167 196.793 2.645 197.028 1.705 196.245C0.765 195.618 1.54833 193.738 4.055 190.605C4.83833 189.508 5.54333 188.568 6.17 187.785C6.79667 187.002 7.18833 186.453 7.345 186.14C28.6517 160.29 48.8617 132.873 67.975 103.89C87.0883 74.9067 103.773 45.7667 118.03 16.47L118.97 12.71C118.343 12.8667 117.638 13.1017 116.855 13.415C116.228 13.5717 115.602 13.8067 114.975 14.12C111.058 16 107.142 18.2717 103.225 20.935C93.355 27.515 83.955 34.9567 75.025 43.26C66.095 51.4067 57.635 59.945 49.645 68.875C48.3917 70.285 45.885 73.1833 42.125 77.57C38.5217 81.8 34.9967 86.5 31.55 91.67C28.1033 96.6833 25.5183 101.54 23.795 106.24C22.0717 110.783 22.5417 114.073 25.205 116.11ZM143.353 91.67C148.21 86.97 152.44 83.3667 156.043 80.86C159.803 78.1967 163.171 76.5517 166.148 75.925C169.281 75.1417 172.18 75.3767 174.843 76.63C177.506 77.7267 180.248 79.7633 183.068 82.74L186.593 77.335C187.376 76.2383 188.63 75.8467 190.353 76.16C192.233 76.4733 193.956 77.1783 195.523 78.275C197.246 79.3717 198.5 80.7033 199.283 82.27C200.223 83.68 200.223 84.9333 199.283 86.03C198.5 86.97 197.09 89.2417 195.053 92.845C193.016 96.4483 190.823 100.6 188.473 105.3C186.28 109.843 184.243 114.387 182.363 118.93C180.483 123.473 179.308 127.155 178.838 129.975C178.681 130.288 178.603 130.68 178.603 131.15C178.603 131.62 178.603 132.09 178.603 132.56C181.266 131.15 184.321 129.192 187.768 126.685C191.215 124.178 194.583 121.672 197.873 119.165C201.163 116.502 204.218 113.995 207.038 111.645C210.015 109.295 212.286 107.493 213.853 106.24C215.106 105.3 216.203 104.673 217.143 104.36C218.083 103.89 219.023 103.498 219.963 103.185C220.903 102.872 221.921 102.558 223.018 102.245C224.115 101.775 225.368 101.07 226.778 100.13C227.718 99.5033 228.345 99.3467 228.658 99.66C229.128 99.8167 228.971 100.443 228.188 101.54C222.078 109.687 215.576 117.598 208.683 125.275C206.803 127.312 204.688 129.662 202.338 132.325C199.988 134.988 197.403 137.417 194.583 139.61C191.92 141.803 189.1 143.527 186.123 144.78C183.146 145.877 180.091 145.955 176.958 145.015C171.318 143.605 167.636 141.49 165.913 138.67C164.19 135.85 163.798 132.482 164.738 128.565C161.605 133.108 158.471 137.26 155.338 141.02C152.205 144.78 149.15 147.522 146.173 149.245C135.52 155.668 127.53 153.397 122.203 142.43C121.106 140.237 120.48 137.417 120.323 133.97C120.166 130.367 120.871 126.372 122.438 121.985C123.848 117.598 126.198 112.898 129.488 107.885C132.778 102.715 137.4 97.31 143.353 91.67ZM146.643 130.21C152.753 123.63 158.55 116.658 164.033 109.295C169.673 101.932 175 94.49 180.013 86.97C177.976 86.6567 175.47 87.3617 172.493 89.085C169.516 90.6517 166.54 92.61 163.563 94.96C160.743 97.1533 158.08 99.3467 155.573 101.54C153.223 103.733 151.656 105.3 150.873 106.24C148.993 108.433 146.8 111.253 144.293 114.7C141.943 117.99 139.671 121.437 137.478 125.04C135.441 128.643 133.796 132.012 132.543 135.145C131.29 138.278 130.976 140.628 131.603 142.195C132.543 143.605 134.031 143.292 136.068 141.255C138.261 139.062 141.786 135.38 146.643 130.21ZM207.394 136.32C207.708 133.187 209.823 128.408 213.739 121.985C213.896 119.948 213.583 118.46 212.799 117.52C212.016 116.58 211.233 115.797 210.449 115.17C209.509 114.543 208.961 113.917 208.804 113.29C208.648 112.507 209.274 111.253 210.684 109.53C212.408 107.493 214.523 105.143 217.029 102.48C219.693 99.8167 222.278 97.1533 224.784 94.49C227.448 91.8267 229.954 89.3983 232.304 87.205C234.654 85.0117 236.534 83.445 237.944 82.505C238.884 81.8783 240.216 81.6433 241.939 81.8C243.663 81.9567 245.308 82.4267 246.874 83.21C248.441 83.8367 249.616 84.6983 250.399 85.795C251.183 86.735 251.183 87.675 250.399 88.615C248.989 90.3383 246.796 93.315 243.819 97.545C240.843 101.618 237.709 106.083 234.419 110.94C231.129 115.64 227.918 120.34 224.784 125.04C221.808 129.74 219.614 133.343 218.204 135.85C220.241 134.283 222.199 132.56 224.079 130.68C227.369 127.39 231.364 123.317 236.064 118.46C240.764 113.447 245.621 108.277 250.634 102.95C255.648 97.4667 260.426 92.14 264.969 86.97C269.513 81.6433 273.194 77.1783 276.014 73.575C276.798 72.635 277.816 72.3217 279.069 72.635C280.479 72.9483 281.733 73.6533 282.829 74.75C283.926 75.8467 284.631 77.2567 284.944 78.98C285.414 80.5467 285.179 82.1133 284.239 83.68C280.166 90.5733 276.093 97.9367 272.019 105.77C268.103 113.603 264.343 121.75 260.739 130.21C264.813 126.45 268.729 123.003 272.489 119.87C276.406 116.58 279.853 113.76 282.829 111.41C285.963 109.06 288.548 107.258 290.584 106.005C292.778 104.595 294.188 103.812 294.814 103.655C296.381 103.342 297.634 103.185 298.574 103.185C299.514 103.028 300.376 102.95 301.159 102.95C301.943 102.793 302.726 102.637 303.509 102.48C304.449 102.167 305.624 101.697 307.034 101.07C309.228 100.13 310.403 99.895 310.559 100.365C310.716 100.835 310.011 101.775 308.444 103.185C305.154 106.005 300.768 109.687 295.284 114.23C289.958 118.617 284.239 123.865 278.129 129.975C272.019 135.928 265.831 142.587 259.564 149.95C253.454 157.313 247.971 165.382 243.114 174.155C240.451 181.675 238.023 188.882 235.829 195.775C233.793 202.668 231.913 209.17 230.189 215.28C229.563 218.1 228.231 219.588 226.194 219.745C224.314 219.902 222.356 219.51 220.319 218.57C218.283 217.63 216.403 216.377 214.679 214.81C213.113 213.243 212.251 212.068 212.094 211.285C211.311 207.055 211.389 202.59 212.329 197.89C213.269 193.19 214.914 188.412 217.264 183.555C219.614 178.698 222.513 173.763 225.959 168.75C229.406 163.893 233.166 159.115 237.239 154.415C239.433 148.618 241.704 142.822 244.054 137.025C246.404 131.072 248.911 125.275 251.574 119.635C248.754 122.455 245.778 125.432 242.644 128.565C239.668 131.698 236.769 134.675 233.949 137.495C231.286 140.158 228.779 142.508 226.429 144.545C224.236 146.425 222.591 147.678 221.494 148.305C219.928 149.245 218.283 149.48 216.559 149.01C214.993 148.383 213.504 147.443 212.094 146.19C210.684 144.78 209.588 143.213 208.804 141.49C207.864 139.767 207.394 138.043 207.394 136.32ZM395.205 54.54C396.615 54.54 397.242 54.6967 397.085 55.01C397.085 55.1667 396.615 55.4017 395.675 55.715C394.892 56.0283 393.873 56.42 392.62 56.89C391.523 57.2033 390.583 57.5167 389.8 57.83C388.077 58.6133 386.745 59.3183 385.805 59.945C384.865 60.5717 384.003 61.1983 383.22 61.825C382.593 62.295 381.888 62.765 381.105 63.235C380.478 63.5483 379.538 63.7833 378.285 63.94C376.092 64.41 373.428 64.8017 370.295 65.115C367.162 65.2717 363.793 65.4283 360.19 65.585C356.743 65.585 353.218 65.6633 349.615 65.82C346.012 65.9767 342.722 66.2117 339.745 66.525C339.275 66.6817 338.492 66.76 337.395 66.76C335.828 68.9533 334.262 71.1467 332.695 73.34C331.128 75.3767 329.64 77.4133 328.23 79.45C325.567 83.0533 322.903 86.5783 320.24 90.025C317.733 93.4717 315.07 96.9183 312.25 100.365L310.84 105.535C309.743 109.608 308.647 113.917 307.55 118.46C306.61 123.003 306.14 126.842 306.14 129.975C306.297 133.578 307.237 135.928 308.96 137.025C310.683 137.965 312.563 138.122 314.6 137.495C316.323 137.025 318.987 135.537 322.59 133.03C326.35 130.367 330.345 127.312 334.575 123.865C338.805 120.262 343.035 116.502 347.265 112.585C351.495 108.668 355.02 104.987 357.84 101.54C358.937 100.287 359.642 99.7383 359.955 99.895C360.425 99.895 360.347 100.678 359.72 102.245C358.937 103.968 358.388 105.535 358.075 106.945C357.762 108.355 357.918 109.843 358.545 111.41C359.015 112.977 358.937 114.387 358.31 115.64C356.117 119.4 353.297 123.238 349.85 127.155C346.56 130.915 343.035 134.44 339.275 137.73C335.672 140.863 332.225 143.527 328.935 145.72C325.645 147.913 323.06 149.245 321.18 149.715C319.3 150.185 316.793 150.028 313.66 149.245C310.527 148.305 307.393 146.973 304.26 145.25C301.283 143.37 298.62 141.098 296.27 138.435C294.077 135.772 292.902 132.873 292.745 129.74C292.588 127.233 292.51 124.805 292.51 122.455C292.667 119.948 292.902 117.363 293.215 114.7C290.552 115.64 287.262 117.207 283.345 119.4C283.032 119.557 282.562 119.792 281.935 120.105C281.308 120.418 280.838 120.575 280.525 120.575C280.055 120.575 279.898 120.34 280.055 119.87C280.055 119.4 280.603 118.538 281.7 117.285C284.363 114.152 286.948 110.862 289.455 107.415C291.962 103.968 294.468 100.522 296.975 97.075C298.228 92.6883 299.638 88.38 301.205 84.15C302.928 79.7633 304.887 75.455 307.08 71.225C303.163 72.635 299.482 74.6717 296.035 77.335C295.095 78.1183 293.842 78.3533 292.275 78.04C290.865 77.57 289.455 76.865 288.045 75.925C286.635 74.985 285.46 73.8883 284.52 72.635C283.58 71.3817 283.267 70.2067 283.58 69.11C283.267 67.7 285.225 65.4283 289.455 62.295C289.768 61.355 290.552 60.8067 291.805 60.65C293.058 60.4933 294.39 60.65 295.8 61.12C298.777 59.8667 301.91 58.9267 305.2 58.3C308.49 57.6733 311.78 57.2033 315.07 56.89C322.903 44.2 331.677 32.92 341.39 23.05C343.74 20.5433 346.09 19.1333 348.44 18.82C350.947 18.35 353.062 18.5067 354.785 19.29C356.665 20.0733 358.075 21.17 359.015 22.58C360.112 23.99 360.503 25.2433 360.19 26.34C358.467 31.3533 356.352 36.2883 353.845 41.145C351.338 45.845 348.597 50.4667 345.62 55.01C353.61 54.6967 361.992 54.54 370.765 54.54C379.695 54.3833 387.842 54.3833 395.205 54.54ZM387.34 75.69C388.593 75.3767 390.003 75.69 391.57 76.63C393.293 77.4133 394.782 78.4317 396.035 79.685C397.758 80.4683 399.403 81.6433 400.97 83.21C402.537 84.62 403.477 85.795 403.79 86.735C404.887 89.8683 405.592 92.9233 405.905 95.9C407.472 96.6833 409.273 97.31 411.31 97.78C413.503 98.0933 415.462 98.485 417.185 98.955C419.065 99.425 420.553 100.13 421.65 101.07C422.903 102.01 424.783 102.48 427.29 102.48C428.857 102.48 429.64 102.793 429.64 103.42C429.797 104.047 429.405 104.517 428.465 104.83C424.705 106.083 420.867 107.023 416.95 107.65C413.033 108.277 409.117 108.198 405.2 107.415C404.103 112.585 402.223 117.52 399.56 122.22C396.897 126.92 393.998 131.15 390.865 134.91C388.985 137.103 386.87 139.453 384.52 141.96C382.17 144.31 379.663 146.347 377 148.07C374.337 149.637 371.517 150.733 368.54 151.36C365.563 151.987 362.508 151.595 359.375 150.185C355.772 148.618 353.108 146.582 351.385 144.075C349.505 141.412 348.33 138.513 347.86 135.38C347.233 132.09 347.155 128.8 347.625 125.51C348.095 122.063 348.8 118.773 349.74 115.64C351.307 111.097 353.265 106.71 355.615 102.48C357.965 98.25 360.707 94.4117 363.84 90.965C367.13 87.3617 370.733 84.3067 374.65 81.8C378.567 79.1367 382.797 77.1 387.34 75.69ZM394.39 102.715C389.533 99.1117 387.105 94.96 387.105 90.26C382.562 92.9233 378.488 96.37 374.885 100.6C371.282 104.673 368.383 108.982 366.19 113.525C364.78 116.188 363.448 119.165 362.195 122.455C360.942 125.745 360.237 128.957 360.08 132.09C360.08 134.44 360.237 136.398 360.55 137.965C361.02 139.375 361.803 140.237 362.9 140.55C364.153 140.707 365.642 140.237 367.365 139.14C369.245 137.887 371.595 135.772 374.415 132.795C375.042 132.168 376.138 130.915 377.705 129.035C379.428 126.998 381.308 124.57 383.345 121.75C385.382 118.93 387.418 115.875 389.455 112.585C391.492 109.295 393.137 106.005 394.39 102.715ZM428.654 131.15C431.317 127.39 433.667 123.317 435.704 118.93C437.741 114.387 439.621 109.765 441.344 105.065C438.211 107.102 434.607 109.295 430.534 111.645C426.461 113.838 422.779 115.718 419.489 117.285C416.669 118.538 415.337 118.617 415.494 117.52C415.494 116.423 415.964 115.327 416.904 114.23C419.724 111.253 422.779 107.807 426.069 103.89C429.359 99.9733 432.571 96.0567 435.704 92.14C438.837 88.0667 441.657 84.2283 444.164 80.625C446.827 76.865 448.864 73.6533 450.274 70.99C450.901 69.8933 451.997 69.5017 453.564 69.815C455.131 69.9717 456.697 70.52 458.264 71.46C459.831 72.4 461.162 73.575 462.259 74.985C463.356 76.2383 463.826 77.4133 463.669 78.51L458.499 99.66C460.379 97.6233 462.572 95.3517 465.079 92.845C467.586 90.1817 470.092 87.7533 472.599 85.56C475.262 83.3667 477.769 81.4083 480.119 79.685C482.469 77.9617 484.427 76.865 485.994 76.395C486.934 76.0817 488.344 76.16 490.224 76.63C492.261 77.1 494.219 77.805 496.099 78.745C497.979 79.685 499.546 80.7817 500.799 82.035C502.209 83.2883 502.836 84.4633 502.679 85.56C502.366 87.7533 501.739 90.965 500.799 95.195C500.016 99.2683 499.311 103.342 498.684 107.415C498.057 111.488 497.744 115.092 497.744 118.225C497.744 121.202 498.371 122.768 499.624 122.925C501.347 123.082 503.541 122.377 506.204 120.81C508.867 119.243 511.531 117.442 514.194 115.405C517.014 113.212 519.599 111.175 521.949 109.295C524.299 107.258 526.101 105.927 527.354 105.3C529.234 104.36 531.192 103.655 533.229 103.185C535.422 102.715 537.851 101.618 540.514 99.895C541.454 99.425 542.159 99.2683 542.629 99.425C543.256 99.425 543.177 100.052 542.394 101.305C539.887 104.752 537.067 108.59 533.934 112.82C530.801 117.05 527.589 121.045 524.299 124.805C521.009 128.565 517.797 131.698 514.664 134.205C511.531 136.712 508.711 137.965 506.204 137.965C504.794 137.808 503.149 137.26 501.269 136.32C499.546 135.223 497.822 133.97 496.099 132.56C494.376 131.15 492.809 129.662 491.399 128.095C489.989 126.528 488.971 125.118 488.344 123.865C486.621 120.262 485.602 115.953 485.289 110.94C485.132 105.77 485.211 100.678 485.524 95.665C481.764 98.7983 477.769 102.402 473.539 106.475C469.466 110.392 465.392 114.465 461.319 118.695C457.402 122.768 453.642 126.763 450.039 130.68C446.592 134.597 443.616 138.043 441.109 141.02L437.584 145.015C436.644 145.955 435.234 146.268 433.354 145.955C431.631 145.642 429.907 144.937 428.184 143.84C426.617 142.743 425.364 141.49 424.424 140.08C423.641 138.67 423.641 137.495 424.424 136.555L428.654 131.15ZM630.168 96.135C637.218 97.8583 646.462 98.955 657.898 99.425C659.308 99.425 659.935 99.66 659.778 100.13C659.778 100.443 659.308 100.757 658.368 101.07C656.018 101.697 654.217 102.323 652.963 102.95C651.867 103.577 650.77 104.203 649.673 104.83C648.577 105.457 647.402 106.083 646.148 106.71C644.895 107.18 643.015 107.493 640.508 107.65C636.905 108.12 633.223 108.12 629.463 107.65C628.523 112.35 627.113 117.207 625.233 122.22C623.353 127.077 621.003 131.698 618.183 136.085C615.52 140.472 612.543 144.388 609.253 147.835C605.963 151.282 602.595 153.867 599.148 155.59C597.738 156.217 595.702 156.373 593.038 156.06C590.375 155.59 587.633 154.807 584.813 153.71C582.15 152.613 579.722 151.282 577.528 149.715C575.335 147.992 574.003 146.19 573.533 144.31C572.123 137.887 571.653 131.777 572.123 125.98C572.437 120.027 573.377 114.387 574.943 109.06C576.353 103.733 578.155 98.72 580.348 94.02C582.542 89.1633 584.735 84.5417 586.928 80.155C589.905 74.2017 593.43 68.2483 597.503 62.295C601.733 56.185 606.12 50.6233 610.663 45.61C615.363 40.44 619.907 35.975 624.293 32.215C628.837 28.455 632.91 25.87 636.513 24.46C637.453 23.99 639.02 23.9117 641.213 24.225C643.563 24.5383 645.757 25.0867 647.793 25.87C649.987 26.6533 651.788 27.75 653.198 29.16C654.608 30.57 655.078 32.215 654.608 34.095C652.415 41.145 649.517 47.3333 645.913 52.66C642.467 57.9867 638.472 63.5483 633.928 69.345C632.205 71.5383 630.247 73.81 628.053 76.16C626.017 78.51 623.823 80.9383 621.473 83.445C624.137 84.5417 626.408 86.5783 628.288 89.555C628.758 90.3383 629.15 91.2783 629.463 92.375C629.933 93.4717 630.168 94.725 630.168 96.135ZM609.018 95.9C605.415 99.3467 601.89 102.637 598.443 105.77C595.153 108.903 592.02 111.88 589.043 114.7C588.73 116.267 588.417 117.833 588.103 119.4C587.79 120.81 587.555 122.22 587.398 123.63C587.085 126.45 586.772 129.74 586.458 133.5C586.145 137.103 586.693 140.237 588.103 142.9C588.417 143.527 589.67 143.057 591.863 141.49C594.057 139.767 596.642 137.182 599.618 133.735C602.595 130.288 605.65 126.058 608.783 121.045C612.073 115.875 614.815 110.157 617.008 103.89C612.622 101.853 609.958 99.19 609.018 95.9ZM633.223 45.375C626.643 50.545 620.377 56.7333 614.423 63.94C608.627 70.99 603.613 78.5883 599.383 86.735C602.987 83.1317 606.59 79.3717 610.193 75.455C613.953 71.5383 617.4 67.7 620.533 63.94C623.04 60.9633 625.312 57.9867 627.348 55.01C629.542 51.8767 631.5 48.665 633.223 45.375ZM685.594 101.775C683.87 104.282 681.755 106.867 679.249 109.53C676.742 112.193 674.079 114.7 671.259 117.05C668.595 119.4 665.854 121.515 663.034 123.395C660.214 125.118 657.629 126.293 655.279 126.92C655.279 128.643 655.357 130.367 655.514 132.09C655.827 133.813 656.375 135.223 657.159 136.32C658.412 138.357 660.057 139.297 662.094 139.14C664.13 138.983 666.245 138.357 668.439 137.26C672.199 135.38 675.959 133.108 679.719 130.445C683.635 127.625 687.474 124.57 691.234 121.28C694.994 117.99 698.597 114.622 702.044 111.175C705.647 107.572 708.937 104.203 711.914 101.07C713.167 99.8167 714.029 99.425 714.499 99.895C715.125 100.208 715.125 100.913 714.499 102.01C712.775 105.927 711.444 109.295 710.504 112.115C709.72 114.935 709.015 117.285 708.389 119.165C708.075 120.418 707.135 122.22 705.569 124.57C704.159 126.763 702.279 129.192 699.929 131.855C697.735 134.518 695.15 137.182 692.174 139.845C689.197 142.508 685.907 144.78 682.304 146.66C678.857 148.383 675.097 149.48 671.024 149.95C667.107 150.42 663.112 149.872 659.039 148.305C653.085 146.112 648.855 142.822 646.349 138.435C643.999 134.048 642.745 129.27 642.589 124.1C642.432 118.93 643.215 113.682 644.939 108.355C646.662 102.872 648.777 97.9367 651.284 93.55C652.38 91.5133 653.869 89.2417 655.749 86.735C657.629 84.2283 659.665 81.8 661.859 79.45C664.209 77.1 666.48 75.1417 668.674 73.575C671.024 71.8517 673.295 70.8333 675.489 70.52C677.839 70.3633 680.58 71.0683 683.714 72.635C686.847 74.045 689.275 75.5333 690.999 77.1C692.565 78.8233 693.427 80.7817 693.584 82.975C693.74 85.1683 693.349 87.3617 692.409 89.555C691.625 91.7483 690.529 93.9417 689.119 96.135C687.865 98.1717 686.69 100.052 685.594 101.775ZM659.744 110C663.347 106.553 666.794 102.558 670.084 98.015C673.53 93.4717 676.194 88.7717 678.074 83.915C676.664 84.855 675.175 86.1867 673.609 87.91C672.199 89.6333 670.867 91.435 669.614 93.315C668.36 95.195 667.185 97.075 666.089 98.955C664.992 100.678 664.13 102.088 663.504 103.185L659.744 110ZM727.363 74.045C729.4 75.7683 730.496 77.8833 730.653 80.39C730.966 82.74 730.653 85.325 729.713 88.145C728.93 90.8083 727.676 93.55 725.953 96.37C724.386 99.0333 722.82 101.462 721.253 103.655C722.036 106.005 722.976 108.355 724.073 110.705C725.17 113.055 725.875 115.797 726.188 118.93C726.815 123.317 726.658 127.703 725.718 132.09C724.778 136.32 724.073 140.237 723.603 143.84C726.423 141.96 729.321 139.453 732.298 136.32C735.431 133.03 738.408 129.74 741.228 126.45C744.205 123.16 746.946 120.105 749.453 117.285C751.96 114.308 753.996 112.037 755.563 110.47C757.6 108.433 759.715 106.318 761.908 104.125C764.101 101.775 766.53 100.443 769.193 100.13C770.446 99.8167 771.621 99.425 772.718 98.955C773.815 98.3283 774.99 97.6233 776.243 96.84C776.713 96.5267 777.105 96.5267 777.418 96.84C777.731 96.9967 777.653 97.4667 777.183 98.25C774.363 102.48 770.76 107.807 766.373 114.23C761.986 120.497 757.443 126.685 752.743 132.795C748.043 138.748 743.421 144.075 738.878 148.775C734.491 153.318 730.81 156.06 727.833 157C726.736 157.313 725.17 157.313 723.133 157C721.253 156.687 719.295 156.138 717.258 155.355C715.221 154.572 713.263 153.553 711.383 152.3C709.66 150.89 708.406 149.323 707.623 147.6C707.153 146.347 706.996 144.78 707.153 142.9C707.466 141.02 707.858 138.905 708.328 136.555C708.955 134.205 709.581 131.62 710.208 128.8C710.835 125.98 711.305 123.003 711.618 119.87C711.931 116.267 711.775 112.898 711.148 109.765C710.678 106.475 710.208 103.263 709.738 100.13C709.268 96.84 709.033 93.6283 709.033 90.495C709.19 87.205 709.973 83.7583 711.383 80.155C712.793 76.5517 715.143 74.1233 718.433 72.87C721.723 71.46 724.7 71.8517 727.363 74.045ZM864.517 54.54C865.927 54.54 866.553 54.6967 866.397 55.01C866.397 55.1667 865.927 55.4017 864.987 55.715C864.203 56.0283 863.185 56.42 861.932 56.89C860.835 57.2033 859.895 57.5167 859.112 57.83C857.388 58.6133 856.057 59.3183 855.117 59.945C854.177 60.5717 853.315 61.1983 852.532 61.825C851.905 62.295 851.2 62.765 850.417 63.235C849.79 63.5483 848.85 63.7833 847.597 63.94C845.403 64.41 842.74 64.8017 839.607 65.115C836.473 65.2717 833.105 65.4283 829.502 65.585C826.055 65.585 822.53 65.6633 818.927 65.82C815.323 65.9767 812.033 66.2117 809.057 66.525C808.587 66.6817 807.803 66.76 806.707 66.76C805.14 68.9533 803.573 71.1467 802.007 73.34C800.44 75.3767 798.952 77.4133 797.542 79.45C794.878 83.0533 792.215 86.5783 789.552 90.025C787.045 93.4717 784.382 96.9183 781.562 100.365L780.152 105.535C779.055 109.608 777.958 113.917 776.862 118.46C775.922 123.003 775.452 126.842 775.452 129.975C775.608 133.578 776.548 135.928 778.272 137.025C779.995 137.965 781.875 138.122 783.912 137.495C785.635 137.025 788.298 135.537 791.902 133.03C795.662 130.367 799.657 127.312 803.887 123.865C808.117 120.262 812.347 116.502 816.577 112.585C820.807 108.668 824.332 104.987 827.152 101.54C828.248 100.287 828.953 99.7383 829.267 99.895C829.737 99.895 829.658 100.678 829.032 102.245C828.248 103.968 827.7 105.535 827.387 106.945C827.073 108.355 827.23 109.843 827.857 111.41C828.327 112.977 828.248 114.387 827.622 115.64C825.428 119.4 822.608 123.238 819.162 127.155C815.872 130.915 812.347 134.44 808.587 137.73C804.983 140.863 801.537 143.527 798.247 145.72C794.957 147.913 792.372 149.245 790.492 149.715C788.612 150.185 786.105 150.028 782.972 149.245C779.838 148.305 776.705 146.973 773.572 145.25C770.595 143.37 767.932 141.098 765.582 138.435C763.388 135.772 762.213 132.873 762.057 129.74C761.9 127.233 761.822 124.805 761.822 122.455C761.978 119.948 762.213 117.363 762.527 114.7C759.863 115.64 756.573 117.207 752.657 119.4C752.343 119.557 751.873 119.792 751.247 120.105C750.62 120.418 750.15 120.575 749.837 120.575C749.367 120.575 749.21 120.34 749.367 119.87C749.367 119.4 749.915 118.538 751.012 117.285C753.675 114.152 756.26 110.862 758.767 107.415C761.273 103.968 763.78 100.522 766.287 97.075C767.54 92.6883 768.95 88.38 770.517 84.15C772.24 79.7633 774.198 75.455 776.392 71.225C772.475 72.635 768.793 74.6717 765.347 77.335C764.407 78.1183 763.153 78.3533 761.587 78.04C760.177 77.57 758.767 76.865 757.357 75.925C755.947 74.985 754.772 73.8883 753.832 72.635C752.892 71.3817 752.578 70.2067 752.892 69.11C752.578 67.7 754.537 65.4283 758.767 62.295C759.08 61.355 759.863 60.8067 761.117 60.65C762.37 60.4933 763.702 60.65 765.112 61.12C768.088 59.8667 771.222 58.9267 774.512 58.3C777.802 57.6733 781.092 57.2033 784.382 56.89C792.215 44.2 800.988 32.92 810.702 23.05C813.052 20.5433 815.402 19.1333 817.752 18.82C820.258 18.35 822.373 18.5067 824.097 19.29C825.977 20.0733 827.387 21.17 828.327 22.58C829.423 23.99 829.815 25.2433 829.502 26.34C827.778 31.3533 825.663 36.2883 823.157 41.145C820.65 45.845 817.908 50.4667 814.932 55.01C822.922 54.6967 831.303 54.54 840.077 54.54C849.007 54.3833 857.153 54.3833 864.517 54.54ZM890.492 29.16C889.708 34.33 887.593 40.0483 884.147 46.315C880.7 52.425 876.47 58.8483 871.457 65.585C866.6 72.3217 861.273 79.0583 855.477 85.795C849.837 92.5317 844.51 98.955 839.497 105.065L835.267 115.405C840.28 109.452 845.528 103.812 851.012 98.485C856.652 93.1583 862.683 88.2233 869.107 83.68C870.047 83.0533 871.3 82.975 872.867 83.445C874.59 83.7583 876.157 84.4633 877.567 85.56C878.977 86.5 880.073 87.675 880.857 89.085C881.797 90.3383 881.875 91.5133 881.092 92.61C878.272 97.1533 876 102.01 874.277 107.18C872.71 112.193 871.457 117.128 870.517 121.985C870.203 123.552 869.812 125.745 869.342 128.565C869.028 131.385 869.028 133.892 869.342 136.085C870.908 135.772 872.71 135.067 874.747 133.97C876.783 132.873 878.82 131.542 880.857 129.975C883.05 128.408 885.165 126.763 887.202 125.04C889.238 123.317 891.118 121.672 892.842 120.105C895.035 118.068 896.68 116.972 897.777 116.815C898.873 116.502 899.813 116.423 900.597 116.58C901.38 116.737 902.242 116.737 903.182 116.58C904.278 116.267 905.923 115.013 908.117 112.82C909.527 111.41 910.937 110.313 912.347 109.53C913.913 108.747 916.498 107.18 920.102 104.83C921.825 103.733 923.157 103.342 924.097 103.655C925.037 103.968 924.802 104.908 923.392 106.475C920.572 109.608 917.595 112.898 914.462 116.345C911.328 119.635 908.195 122.847 905.062 125.98C902.085 129.113 899.03 132.09 895.897 134.91C892.92 137.73 890.1 140.158 887.437 142.195C885.713 143.448 884.225 144.623 882.972 145.72C881.718 146.66 880.465 147.443 879.212 148.07C877.958 148.54 876.548 148.775 874.982 148.775C873.415 148.618 871.535 148.07 869.342 147.13C865.425 145.407 862.292 143.84 859.942 142.43C857.592 141.02 855.868 138.435 854.772 134.675C854.145 132.795 854.067 129.897 854.537 125.98C855.007 122.063 855.947 117.598 857.357 112.585C851.873 117.755 846.703 123.238 841.847 129.035C837.147 134.675 832.76 140.55 828.687 146.66C827.903 147.757 826.65 148.07 824.927 147.6C823.36 146.973 821.793 145.955 820.227 144.545C818.503 143.135 817.093 141.49 815.997 139.61C814.9 137.573 814.587 135.693 815.057 133.97C816.153 129.427 817.25 125.118 818.347 121.045C819.443 116.972 820.618 113.055 821.872 109.295C823.125 105.378 824.457 101.462 825.867 97.545C827.433 93.6283 829.157 89.555 831.037 85.325C834.013 78.5883 837.147 71.93 840.437 65.35C843.727 58.6133 847.173 52.1117 850.777 45.845C854.38 39.5783 858.297 33.5467 862.527 27.75C866.757 21.9533 871.457 16.5483 876.627 11.535C879.447 9.02832 881.875 8.94999 883.912 11.3C885.635 13.18 887.28 15.8433 888.847 19.29C890.413 22.58 890.962 25.87 890.492 29.16ZM877.802 31.275C872.788 36.7583 868.48 42.555 864.877 48.665C861.43 54.6183 858.14 60.885 855.007 67.465C859.707 61.9817 864.015 56.3417 867.932 50.545C872.005 44.7483 875.295 38.325 877.802 31.275Z" fill="white"/>
</svg>
